<?xml version="1.0" ?><svg data-name="Layer 1" id="Layer_1" viewBox="0 0 32 32" xmlns="http://www.w3.org/2000/svg"><defs><style>.cls-1,.cls-2{fill:none;stroke-linecap:round;stroke-linejoin:round;stroke-width:2px;}.cls-1{stroke:#959cf2;}.cls-2{stroke:#4e5aea;}</style></defs><title/><path class="cls-1" d="M7.2,11.1H8.4a0,0,0,0,1,0,0v9.8a0,0,0,0,1,0,0H7.2a3,3,0,0,1-3-3V14.1A3,3,0,0,1,7.2,11.1Z"/><path class="cls-2" d="M19.8,2.7h2a4,4,0,0,1,4,4V25.3a4,4,0,0,1-4,4h-2a0,0,0,0,1,0,0V2.7A0,0,0,0,1,19.8,2.7Z"/><polygon class="cls-2" points="19.8 29.3 11.8 20.9 11.8 11.1 19.8 2.7 19.8 29.3"/><line class="cls-1" x1="30" x2="2" y1="2" y2="30"/></svg>