<?xml version="1.0" ?><svg data-name="Layer 1" id="Layer_1" viewBox="0 0 32 32" xmlns="http://www.w3.org/2000/svg"><defs><style>.cls-1,.cls-2{fill:none;stroke-linecap:round;stroke-linejoin:round;stroke-width:2px;}.cls-1{stroke:#959cf2;}.cls-2{stroke:#4e5aea;}</style></defs><title/><path class="cls-1" d="M6.68,10.84H8.11a0,0,0,0,1,0,0V21.16a0,0,0,0,1,0,0H6.68a3,3,0,0,1-3-3V13.84A3,3,0,0,1,6.68,10.84Z"/><path class="cls-2" d="M20,2h2.32a4,4,0,0,1,4,4V26a4,4,0,0,1-4,4H20a0,0,0,0,1,0,0V2A0,0,0,0,1,20,2Z"/><polygon class="cls-2" points="20 30 11.58 21.16 11.58 10.84 20 2 20 30"/></svg>